<mxfile host="app.diagrams.net" modified="2023-12-28T02:32:58.680Z" agent="Mozilla/5.0 (Windows NT 10.0; Win64; x64) AppleWebKit/537.36 (KHTML, like Gecko) Chrome/120.0.0.0 Safari/537.36" version="22.1.15" etag="NtB_bomL18owOotzf9lh" type="github">
  <diagram name="第 1 页" id="nvleQ8f8ANa5GvId4Gec">
    <mxGraphModel>
      <root>
        <mxCell id="0" />
        <mxCell id="1" parent="0" />
      </root>
    </mxGraphModel>
  </diagram>
</mxfile>
